<svg xmlns="http://www.w3.org/2000/svg" viewBox="0 0 220 220" width="220" height="220">
  <defs>
    <linearGradient id="bun" x1="0" x2="1" y1="0" y2="1">
      <stop offset="0%" stop-color="#F7C66B"/>
      <stop offset="100%" stop-color="#E39A38"/>
    </linearGradient>
    <linearGradient id="leaf" x1="0" x2="1" y1="0" y2="0">
      <stop offset="0%" stop-color="#5DBB63"/>
      <stop offset="100%" stop-color="#7AC943"/>
    </linearGradient>
  </defs>

  <!-- Background card, centered in 220x220 -->
  <rect x="15" y="30" width="190" height="160" rx="36" fill="#FFF7ED"/>

  <!-- Burger contents, offset = card origin + inner padding (15,15) -->
  <g transform="translate(30,45)">
    <path d="M15 55c0-25 20-40 45-40h40c25 0 45 15 45 40v10H15z"
          fill="url(#bun)" stroke="#C98024" stroke-width="3"/>
    <path d="M18 75c10-8 20-8 30 0s20 8 30 0s20-8 30 0s20 8 30 0v12H18z"
          fill="#E25B4B"/>
    <rect x="15" y="85" width="130" height="12" rx="6" fill="url(#leaf)"/>
    <rect x="15" y="100" width="130" height="20" rx="10"
          fill="url(#bun)" stroke="#C98024" stroke-width="3"/>
  </g>
</svg>
